<svg width="99" height="21" viewBox="0 0 99 21" fill="none" xmlns="http://www.w3.org/2000/svg">
<path d="M17.76 14.36C18.52 13.6 19.36 14.16 18.96 15.24C18.16 17.32 15 20.4 9.8 20.4C4.16 20.4 0.36 16.4 0.36 11.04C0.36 4.96 4.88 0.4 10.6 0.4C15.2 0.4 18.04 3.12 18.68 6.52C18.8 7.2 18.6 7.8 17.76 8.12C13.56 9.88 9.84 11.2 5.4 12.76C6.2 14.84 8.24 17.12 11.68 17.12C14.24 17.12 16.32 15.84 17.76 14.36ZM9.12 2.64C6.16 2.8 4.64 5.56 4.64 8.28C4.64 9.24 4.72 10.12 4.92 10.76C7.72 9.84 10.44 8.92 12.96 7.88C13.6 7.64 14 7.28 13.8 6.4C13.32 4 11.2 2.44 9.12 2.64ZM25.0109 20.4C23.6509 20.4 22.4509 19.56 22.4509 17.92C22.4509 16.12 23.8909 15 25.2909 15C26.6509 15 27.8909 15.92 27.8909 17.6C27.8909 19.36 26.4909 20.4 25.0109 20.4ZM34.3756 20.4C33.7756 20.4 33.5756 20.12 33.0556 18.92C32.4556 17.32 32.0156 16.2 31.6156 14.72C31.4556 14 31.6156 13.6 32.0556 13.44C32.5756 13.2 33.0956 13.6 33.8156 14.28C36.6556 17.24 38.8556 18.32 41.0956 18.32C42.6956 18.32 43.9356 17.52 43.9356 16.04C43.9356 14.48 41.8156 13.4 38.4556 12C35.1756 10.64 32.0956 9.2 32.0956 5.88C32.0956 2.12 35.5356 0.4 38.5756 0.4C40.7756 0.4 42.0956 0.879999 43.2156 0.919999C43.9356 0.96 44.0956 0.4 44.6956 0.4C45.2556 0.4 45.5356 0.879999 46.0956 1.84C46.6556 2.88 46.9356 3.52 47.2556 4.32C47.5756 5.16 47.4956 5.72 47.0556 5.96C46.3756 6.32 45.7356 5.64 44.4156 4.64C42.8556 3.52 40.8556 2.44 39.0556 2.44C37.1356 2.44 36.1356 3.44 36.1356 4.6C36.1356 6.16 37.8956 7.04 41.3756 8.48C45.4556 10.16 48.3356 11.72 48.3356 14.68C48.3356 17.88 45.2556 20.4 40.9356 20.4C38.0556 20.4 36.7756 19.6 35.9356 19.6C35.3356 19.6 35.1356 20.4 34.3756 20.4ZM70.7525 1.44L70.7125 6.96V14.4C70.7125 17.4 73.0725 16.6 73.0725 17.76C73.0725 18.24 72.6725 18.64 71.9125 19.08C70.7925 19.68 68.8725 20.4 67.8325 20.4C66.7925 20.4 66.3925 19.68 66.3125 18.16L66.2725 16.84C64.5925 19.16 61.9125 20.4 59.7125 20.4C55.5925 20.4 52.9925 17.72 52.9925 12.4L52.9525 6.96C52.9525 3.8 51.0325 4.32 51.0325 3.08C51.0325 2.6 51.2725 2.36 52.2325 1.92C53.9525 1.12 56.0725 0.439999 56.6725 0.4C57.2725 0.359999 57.5525 0.68 57.5525 1.44L57.5125 6.96V12.04C57.5125 15.36 58.5125 17.52 61.2325 17.48C63.5925 17.44 66.1925 15.12 66.1925 11.48V6.96C66.1925 3.8 64.2325 4.32 64.2325 3.08C64.2325 2.6 64.4725 2.36 65.4325 1.92C67.1525 1.12 69.2725 0.439999 69.8725 0.4C70.4725 0.359999 70.7525 0.68 70.7525 1.44ZM94.9778 8.72L96.2978 15.64C96.7778 18.12 98.3778 17.8 98.3778 19.12C98.3778 19.84 97.7778 20 96.7378 20H91.8178C90.7778 20 90.0978 19.8 90.0978 19.08C90.0978 17.84 92.2178 18.04 91.7378 15.44L90.5378 8.96C90.0178 6.12 89.2978 3.32 86.1378 3.36C83.7778 3.4 81.4578 5.52 81.4578 9.68V14.6C81.4578 18.36 83.3378 17.56 83.3378 19.12C83.3378 19.84 82.7378 20 81.6978 20H76.6578C75.6578 20 74.9778 19.8 74.9778 19.08C74.9778 17.56 76.9378 18.36 76.9378 14.6V6.76C76.9378 5.52 76.6178 4.64 75.6978 4.04C75.2978 3.76 74.9778 3.48 74.9778 3C74.9778 2.48 75.2178 2.2 76.1778 1.76C77.6178 1.12 79.5378 0.519999 80.1378 0.479999C80.6978 0.479999 80.9778 0.759999 80.9778 1.52L80.9378 4.48C82.4978 1.76 85.1378 0.4 87.7778 0.4C92.0578 0.4 93.9378 3 94.9778 8.72Z" fill="white"/>
</svg>
